<svg id="svg" version="1.1" xmlns="http://www.w3.org/2000/svg" xmlns:xlink="http://www.w3.org/1999/xlink" width="400" height="400" viewBox="0, 0, 400,400"><g id="svgg"><path id="path0" d="M34.218 60.661 C 28.362 61.916,27.957 62.384,30.700 64.721 C 31.745 65.611,32.996 67.119,33.479 68.070 C 34.676 70.426,36.400 74.420,36.400 74.837 C 36.400 75.887,38.575 79.514,39.615 80.200 C 40.936 81.071,42.463 83.501,43.191 85.887 C 44.490 90.151,46.534 93.636,49.300 96.303 C 49.685 96.674,50.000 97.125,50.000 97.305 C 50.000 97.485,50.350 98.120,50.778 98.716 C 51.206 99.312,52.040 101.316,52.631 103.169 C 53.548 106.047,54.007 106.839,55.772 108.590 C 57.956 110.756,59.818 114.148,61.438 118.912 C 62.178 121.088,62.813 122.091,64.486 123.730 C 66.599 125.799,66.698 125.983,70.140 134.295 C 70.829 135.959,71.884 137.501,73.307 138.925 C 75.026 140.643,75.663 141.676,76.582 144.229 C 77.745 147.464,79.362 150.681,80.185 151.400 C 82.615 153.521,85.320 158.278,86.066 161.744 C 86.396 163.274,86.953 164.168,88.684 165.944 C 91.088 168.411,94.515 174.729,94.997 177.583 C 95.256 179.116,95.666 179.662,98.612 182.400 C 99.862 183.561,103.106 190.225,103.773 193.000 C 103.932 193.660,104.962 195.070,106.063 196.132 C 107.851 197.859,110.399 202.164,110.400 203.460 C 110.400 204.394,112.346 208.082,113.516 209.368 C 115.899 211.987,118.650 216.526,118.989 218.400 C 119.407 220.707,121.146 223.728,122.738 224.914 C 123.560 225.527,124.523 226.607,124.878 227.314 C 126.068 229.687,127.145 232.180,128.184 234.968 C 128.971 237.081,129.726 238.238,131.370 239.857 C 132.766 241.231,133.766 242.651,134.207 243.889 C 134.583 244.940,135.130 246.340,135.424 247.000 C 135.718 247.660,136.400 249.218,136.940 250.462 C 137.479 251.706,138.629 253.416,139.493 254.262 C 141.263 255.994,142.868 258.620,143.610 261.000 C 144.461 263.727,145.880 266.204,147.731 268.192 C 149.791 270.403,152.050 274.709,153.048 278.323 C 153.642 280.478,154.029 281.084,155.696 282.480 C 157.705 284.163,160.341 288.982,161.886 293.800 C 162.358 295.272,163.074 296.295,164.596 297.672 C 166.300 299.213,166.891 300.130,167.952 302.872 C 169.956 308.056,170.800 309.604,173.145 312.400 C 175.129 314.765,177.194 318.485,177.204 319.711 C 177.213 320.852,179.209 324.338,180.839 326.062 C 182.978 328.323,185.359 332.637,186.154 335.689 C 186.943 338.716,187.284 339.272,189.139 340.558 C 190.992 341.842,191.937 343.626,195.516 352.600 C 195.866 353.480,196.974 354.945,197.977 355.855 C 200.045 357.732,200.580 358.672,202.615 364.000 C 203.599 366.578,204.538 368.292,205.533 369.329 C 207.361 371.233,212.166 375.200,212.645 375.199 C 213.084 375.199,215.310 370.881,216.222 368.258 C 216.954 366.155,218.799 363.781,219.997 363.401 C 220.471 363.251,221.144 362.112,221.838 360.282 C 224.353 353.662,226.216 350.205,228.099 348.661 C 229.948 347.146,230.359 346.415,231.198 343.157 C 231.830 340.700,234.440 336.036,236.247 334.134 C 238.230 332.047,239.472 330.065,239.805 328.456 C 240.099 327.035,241.897 322.739,242.339 322.400 C 244.521 320.729,247.928 314.867,249.657 309.812 C 249.977 308.876,251.121 307.317,252.444 306.012 C 253.838 304.639,254.883 303.194,255.201 302.200 C 255.482 301.320,256.209 299.520,256.815 298.200 C 257.422 296.880,258.267 294.989,258.694 293.997 C 259.192 292.839,260.130 291.694,261.316 290.797 C 262.331 290.029,263.324 288.950,263.521 288.400 C 263.718 287.850,264.301 286.075,264.817 284.455 C 265.333 282.835,266.055 281.125,266.421 280.655 C 266.787 280.185,267.376 279.236,267.729 278.547 C 268.083 277.858,268.930 276.778,269.612 276.147 C 271.252 274.630,272.517 272.392,273.578 269.128 C 274.453 266.435,275.615 264.574,278.024 262.002 C 278.745 261.233,279.772 259.613,280.306 258.402 C 280.841 257.191,281.595 255.480,281.982 254.600 C 282.368 253.720,282.809 252.486,282.961 251.857 C 283.113 251.228,284.399 249.541,285.818 248.107 C 287.238 246.673,288.398 245.297,288.395 245.050 C 288.372 242.857,292.349 234.924,294.612 232.650 C 296.697 230.556,297.156 229.823,297.772 227.600 C 298.877 223.612,300.409 220.905,303.318 217.800 C 304.747 216.275,306.800 212.598,306.800 211.563 C 306.800 210.335,309.067 206.410,310.822 204.600 C 312.592 202.774,314.376 199.391,315.575 195.589 C 316.263 193.404,317.619 191.319,319.491 189.566 C 320.986 188.166,321.621 187.185,322.178 185.414 C 323.542 181.077,326.177 176.330,328.339 174.313 C 329.803 172.948,330.482 171.952,330.795 170.713 C 331.865 166.481,333.778 162.979,336.925 159.491 C 338.368 157.892,338.829 156.967,340.817 151.694 C 341.829 149.007,342.393 148.111,343.823 146.916 C 345.704 145.344,345.686 145.376,348.639 138.400 C 350.296 134.484,350.929 133.460,352.893 131.515 C 354.162 130.258,355.200 128.939,355.200 128.584 C 355.200 126.557,359.076 118.924,361.183 116.800 C 363.055 114.914,363.552 114.067,364.672 110.865 C 365.934 107.255,368.355 103.112,370.234 101.346 C 371.186 100.450,373.597 95.991,373.604 95.111 C 373.613 93.871,375.738 90.206,377.571 88.268 C 379.493 86.236,380.364 84.555,382.859 78.074 C 383.407 76.650,384.446 75.181,386.007 73.625 C 387.926 71.712,388.479 70.841,389.147 68.676 C 389.594 67.231,390.326 65.329,390.775 64.449 C 391.722 62.592,391.494 62.174,388.774 60.787 C 386.670 59.713,39.216 59.590,34.218 60.661 " stroke="none" fill="#7ddc55" fill-rule="evenodd"></path><path id="path1" d="M0.000 200.000 L 0.000 400.000 200.000 400.000 L 400.000 400.000 400.000 235.000 L 400.000 70.000 398.249 70.000 C 396.180 70.000,395.800 70.375,394.955 73.249 C 393.835 77.062,390.881 82.460,388.813 84.472 C 387.180 86.062,386.722 86.869,385.783 89.816 C 384.664 93.330,383.059 96.089,380.440 99.000 C 378.955 100.650,377.933 102.702,376.357 107.200 C 375.660 109.191,374.961 110.269,373.376 111.800 C 371.916 113.210,370.954 114.626,370.116 116.600 C 369.462 118.140,368.331 120.802,367.603 122.516 C 366.769 124.476,365.819 126.003,365.039 126.635 C 362.509 128.685,362.161 129.169,361.426 131.657 C 361.013 133.055,360.164 135.170,359.538 136.356 C 358.912 137.542,358.400 138.764,358.400 139.071 C 358.400 139.378,357.345 140.671,356.057 141.944 C 353.950 144.025,353.585 144.642,352.450 148.051 C 351.373 151.284,350.795 152.314,348.537 155.022 C 346.168 157.863,343.600 162.420,343.600 163.781 C 343.600 165.038,341.055 169.074,339.616 170.100 C 338.260 171.066,337.822 171.839,335.992 176.500 C 333.857 181.935,332.930 183.602,331.268 185.000 C 329.125 186.801,328.803 187.266,328.167 189.484 C 327.018 193.485,324.061 199.113,322.413 200.438 C 320.834 201.706,319.465 204.091,318.990 206.400 C 318.549 208.543,317.310 210.727,314.788 213.800 C 312.543 216.536,310.400 220.215,310.400 221.333 C 310.400 222.807,307.520 227.454,305.852 228.671 C 304.495 229.661,304.011 230.334,303.665 231.708 C 302.740 235.381,299.380 241.704,297.318 243.651 C 295.711 245.169,295.232 245.958,294.654 248.036 C 293.567 251.945,289.615 258.800,288.448 258.800 C 287.968 258.800,286.129 262.397,285.789 263.998 C 285.298 266.317,284.349 268.058,281.974 271.000 C 279.471 274.100,278.288 276.241,276.451 281.003 C 275.258 284.096,274.833 284.696,272.147 287.085 C 271.345 287.799,270.529 289.207,269.880 291.000 C 267.810 296.718,266.402 299.266,264.018 301.614 C 262.105 303.498,261.618 304.262,261.197 306.045 C 260.443 309.240,257.802 314.219,255.799 316.223 C 253.686 318.335,253.552 318.571,252.299 322.400 C 251.142 325.935,250.254 327.481,248.051 329.792 C 246.589 331.326,243.200 337.638,243.200 338.827 C 243.200 339.891,240.682 343.600,239.055 344.933 C 237.628 346.103,237.194 346.796,236.629 348.811 C 235.508 352.806,232.919 357.552,230.611 359.841 C 228.911 361.527,228.403 362.367,227.820 364.451 C 226.806 368.082,223.022 374.800,221.992 374.800 C 221.509 374.800,219.657 377.711,219.093 379.356 C 217.931 382.745,214.124 386.301,212.219 385.777 C 205.508 383.929,199.418 378.117,198.200 372.400 C 197.742 370.246,196.470 367.985,194.561 365.930 C 192.712 363.939,189.897 358.560,189.170 355.630 C 188.851 354.344,188.093 353.194,186.400 351.430 C 183.972 348.899,182.183 345.557,180.420 340.260 C 179.686 338.053,179.249 337.379,178.031 336.573 C 176.015 335.239,174.895 333.626,173.936 330.676 C 172.685 326.826,170.923 323.649,168.367 320.633 C 166.415 318.330,165.808 317.227,164.752 314.055 C 163.681 310.840,163.184 309.946,161.577 308.339 C 159.461 306.223,157.388 302.448,156.009 298.200 C 155.262 295.900,154.699 295.001,152.850 293.165 C 150.658 290.988,147.913 285.700,146.423 280.784 C 146.160 279.917,145.533 279.096,144.802 278.665 C 143.122 277.673,141.730 275.703,140.803 273.007 C 139.514 269.263,137.927 266.346,135.933 264.057 C 133.639 261.424,131.863 258.112,131.186 255.204 C 130.778 253.455,130.248 252.561,128.573 250.804 C 126.300 248.420,123.316 242.937,122.258 239.200 C 121.758 237.433,121.266 236.690,119.760 235.431 C 117.840 233.826,115.093 228.750,113.455 223.780 C 112.967 222.300,112.297 221.349,110.951 220.224 C 109.277 218.825,106.801 214.718,106.800 213.340 C 106.799 211.871,103.444 206.573,100.623 203.587 C 99.945 202.870,98.010 198.823,98.004 198.111 C 97.994 196.839,95.964 193.228,94.649 192.145 C 93.030 190.810,90.151 185.347,89.043 181.507 C 88.504 179.636,87.917 178.750,85.868 176.707 C 84.223 175.066,83.135 173.578,82.718 172.400 C 80.406 165.856,79.759 164.559,77.884 162.711 C 76.039 160.891,73.600 156.928,73.600 155.749 C 73.600 154.677,70.781 149.801,68.773 147.400 C 66.501 144.683,65.019 141.809,64.312 138.747 C 63.915 137.028,63.400 136.223,61.415 134.220 C 58.971 131.754,56.489 126.897,55.218 122.094 C 54.880 120.819,54.385 120.137,53.253 119.388 C 50.852 117.799,50.277 116.760,46.265 106.753 C 45.946 105.957,44.927 104.697,44.000 103.953 C 42.141 102.460,41.336 101.085,40.048 97.200 C 39.050 94.186,38.305 92.908,34.943 88.441 C 33.015 85.879,32.252 84.426,31.396 81.688 C 30.462 78.700,30.002 77.884,28.191 76.000 C 25.579 73.282,21.600 65.021,21.600 62.316 C 21.600 57.718,24.015 53.663,27.771 51.958 C 29.587 51.133,386.651 50.804,391.600 51.622 C 392.810 51.823,395.195 52.105,396.900 52.250 L 400.000 52.514 400.000 26.257 L 400.000 0.000 200.000 0.000 L 0.000 0.000 0.000 200.000 " stroke="none" fill="#fbfcfb" fill-rule="evenodd"></path><path id="path2" d="M30.704 56.371 C 28.381 56.696,26.394 58.454,25.396 61.066 C 24.545 63.295,25.276 65.386,28.361 69.548 C 29.442 71.007,31.162 73.910,32.182 76.000 C 35.196 82.173,36.062 83.702,37.617 85.600 C 38.429 86.590,40.119 89.668,41.373 92.440 C 42.627 95.212,44.355 98.329,45.212 99.366 C 46.874 101.376,48.730 104.506,49.623 106.800 C 50.422 108.854,53.155 113.646,54.185 114.800 C 55.469 116.238,57.727 120.220,58.802 122.943 C 59.311 124.231,60.547 126.391,61.549 127.743 C 62.550 129.094,64.686 132.783,66.295 135.940 C 67.904 139.097,69.916 142.517,70.766 143.540 C 71.617 144.563,73.572 148.010,75.112 151.200 C 76.652 154.390,78.404 157.450,79.006 158.000 C 79.607 158.550,81.123 161.070,82.374 163.600 C 84.948 168.807,86.704 171.924,87.551 172.793 C 88.455 173.720,90.598 177.253,91.196 178.800 C 92.289 181.631,93.968 184.687,95.322 186.306 C 96.086 187.221,97.905 190.401,99.365 193.373 C 100.825 196.345,102.885 199.907,103.943 201.289 C 105.726 203.617,106.411 204.887,109.396 211.400 C 110.002 212.720,111.146 214.600,111.940 215.579 C 114.102 218.244,114.904 219.539,116.164 222.400 C 117.402 225.209,119.438 228.695,122.230 232.782 C 123.200 234.203,124.556 236.723,125.243 238.382 C 125.930 240.042,127.390 242.617,128.487 244.105 C 129.585 245.592,131.729 249.322,133.252 252.393 C 134.775 255.464,136.712 258.774,137.556 259.750 C 138.401 260.725,139.459 262.306,139.908 263.262 C 143.018 269.886,143.736 271.265,144.888 272.836 C 147.522 276.428,148.153 277.480,149.801 281.028 C 150.728 283.024,152.842 286.657,154.499 289.103 C 156.155 291.548,158.005 294.843,158.610 296.425 C 159.214 298.007,160.595 300.472,161.678 301.903 C 162.761 303.334,164.898 307.002,166.428 310.056 C 167.957 313.109,170.086 316.696,171.159 318.027 C 172.232 319.358,173.424 321.292,173.807 322.324 C 174.984 325.489,177.633 330.349,179.033 331.914 C 179.765 332.731,181.623 335.920,183.163 339.000 C 184.702 342.080,186.708 345.585,187.618 346.790 C 188.529 347.994,190.263 351.044,191.472 353.567 C 192.680 356.091,194.449 359.155,195.402 360.378 C 196.355 361.600,198.295 364.940,199.712 367.800 C 203.296 375.032,203.353 375.113,206.697 377.800 C 211.307 381.503,212.463 382.112,213.503 381.383 C 214.434 380.731,217.904 375.193,219.149 372.372 C 219.579 371.397,220.757 369.610,221.767 368.401 C 223.511 366.312,224.728 364.165,226.183 360.612 C 226.540 359.739,228.175 357.017,229.816 354.563 C 231.457 352.109,232.800 349.983,232.800 349.838 C 232.800 349.141,236.563 342.129,237.724 340.663 C 239.519 338.396,241.023 335.992,241.395 334.795 C 242.045 332.706,244.549 328.110,246.187 326.000 C 247.127 324.790,249.197 321.200,250.789 318.023 C 252.381 314.845,254.368 311.425,255.206 310.423 C 256.044 309.420,257.743 306.440,258.982 303.800 C 260.220 301.160,261.729 298.370,262.335 297.600 C 264.190 295.242,266.577 291.143,267.798 288.219 C 268.436 286.690,269.827 284.350,270.888 283.019 C 272.597 280.877,274.520 277.359,277.130 271.600 C 277.579 270.610,278.742 268.843,279.716 267.673 C 281.553 265.464,281.834 264.963,285.132 257.997 C 286.226 255.686,287.523 253.436,288.013 252.997 C 289.321 251.827,290.694 249.519,292.263 245.853 C 293.027 244.067,294.955 240.624,296.547 238.203 C 298.139 235.781,300.287 232.065,301.320 229.944 C 302.354 227.823,303.874 225.266,304.700 224.261 C 306.178 222.460,306.636 221.627,309.957 214.705 C 310.880 212.782,312.361 210.370,313.249 209.343 C 314.137 208.317,316.095 204.940,317.600 201.839 C 319.106 198.738,320.674 195.840,321.085 195.400 C 322.043 194.376,324.091 191.295,324.676 190.000 C 324.924 189.450,325.690 187.750,326.379 186.223 C 327.067 184.695,328.222 182.715,328.946 181.823 C 330.377 180.058,333.774 174.178,334.210 172.711 C 334.682 171.123,336.862 167.461,338.357 165.744 C 339.151 164.832,340.099 163.482,340.465 162.744 C 341.313 161.032,342.931 157.448,343.754 155.463 C 344.104 154.617,345.272 152.817,346.349 151.463 C 347.426 150.108,349.602 146.482,351.184 143.405 C 352.766 140.327,354.682 137.050,355.443 136.121 C 356.204 135.193,357.383 133.210,358.062 131.716 C 360.319 126.755,360.830 125.824,363.071 122.600 C 364.294 120.840,366.331 117.240,367.596 114.600 C 368.862 111.960,370.646 108.900,371.560 107.800 C 372.474 106.700,373.957 104.270,374.855 102.400 C 377.919 96.019,378.600 94.799,379.873 93.407 C 380.573 92.641,382.314 89.626,383.742 86.707 C 385.170 83.788,387.375 79.960,388.641 78.200 C 389.908 76.440,391.278 74.127,391.686 73.060 C 393.971 67.080,395.778 64.800,398.236 64.800 L 400.000 64.800 400.000 62.200 L 400.000 59.600 398.398 59.600 C 397.289 59.600,395.796 59.077,393.549 57.900 L 390.301 56.200 211.451 56.153 C 113.083 56.126,31.747 56.225,30.704 56.371 M390.527 58.215 C 392.151 58.865,393.684 59.863,394.789 60.989 L 396.515 62.747 395.315 63.947 C 394.137 65.124,392.608 67.920,390.629 72.513 C 390.081 73.785,389.014 75.585,388.258 76.513 C 386.399 78.794,385.569 80.217,382.982 85.560 C 381.767 88.068,380.068 90.964,379.205 91.994 C 378.342 93.025,376.815 95.563,375.811 97.634 C 372.979 103.479,371.965 105.280,370.597 106.896 C 369.900 107.718,368.022 111.010,366.422 114.210 C 364.822 117.411,363.302 120.248,363.043 120.515 C 362.129 121.458,358.893 126.614,358.597 127.600 C 358.036 129.464,356.096 132.992,354.417 135.201 C 353.498 136.410,351.711 139.485,350.447 142.034 C 347.770 147.426,346.708 149.213,345.191 150.875 C 344.585 151.538,342.955 154.538,341.570 157.541 C 340.185 160.543,338.489 163.630,337.802 164.400 C 336.533 165.821,334.400 168.976,334.400 169.433 C 334.400 170.212,330.200 177.851,328.362 180.415 C 327.173 182.074,325.579 184.912,324.820 186.723 C 324.061 188.534,322.495 191.273,321.339 192.810 C 320.183 194.346,317.984 198.168,316.454 201.302 C 314.923 204.436,313.057 207.684,312.306 208.521 C 311.556 209.358,310.347 211.248,309.619 212.721 C 305.875 220.302,305.062 221.772,303.437 223.910 C 302.466 225.186,300.964 227.754,300.099 229.615 C 299.234 231.477,297.514 234.471,296.276 236.269 C 293.812 239.850,291.200 244.554,291.200 245.410 C 291.200 246.219,289.687 248.720,287.729 251.148 C 286.203 253.040,283.829 257.488,281.580 262.668 C 281.182 263.585,280.253 265.025,279.516 265.868 C 277.763 267.872,276.153 270.349,275.790 271.600 C 275.224 273.555,271.827 279.789,270.568 281.183 C 269.449 282.423,266.000 288.635,266.000 289.410 C 266.000 289.887,263.152 294.498,261.806 296.200 C 260.339 298.055,259.292 299.965,257.752 303.600 C 256.565 306.401,255.678 307.867,253.950 309.886 C 253.345 310.593,251.744 313.383,250.392 316.086 C 247.532 321.806,246.709 323.220,244.971 325.400 C 243.682 327.015,241.953 330.197,241.408 331.954 C 240.976 333.347,238.445 337.599,237.169 339.076 C 236.563 339.777,234.934 342.641,233.548 345.441 C 232.163 348.240,230.162 351.716,229.101 353.165 C 227.247 355.698,226.771 356.572,224.036 362.455 C 223.357 363.916,222.069 365.986,221.173 367.055 C 220.277 368.125,218.996 370.080,218.326 371.400 C 216.630 374.744,213.202 380.401,212.873 380.397 C 212.462 380.393,210.669 379.122,209.572 378.056 C 209.037 377.537,207.672 376.419,206.539 375.572 C 204.071 373.728,203.273 372.663,201.610 368.989 C 199.348 363.994,197.938 361.432,196.444 359.600 C 194.403 357.096,193.952 356.319,192.060 352.048 C 191.146 349.985,189.519 347.105,188.443 345.648 C 186.598 343.150,184.964 340.247,183.351 336.600 C 182.490 334.651,181.044 332.336,179.356 330.200 C 178.131 328.650,175.497 323.656,174.399 320.800 C 174.103 320.030,172.962 318.241,171.864 316.824 C 170.766 315.407,168.557 311.627,166.955 308.424 C 165.354 305.221,163.486 301.970,162.805 301.200 C 162.124 300.430,160.836 298.270,159.943 296.400 C 159.050 294.530,158.023 292.380,157.660 291.621 C 157.297 290.863,156.134 289.063,155.076 287.621 C 154.018 286.180,152.073 282.814,150.755 280.143 C 149.437 277.471,147.566 274.266,146.598 273.020 C 145.631 271.774,143.671 268.364,142.242 265.442 C 140.814 262.521,138.988 259.343,138.184 258.381 C 137.380 257.419,135.428 254.014,133.846 250.814 C 132.264 247.615,130.157 244.000,129.165 242.781 C 128.173 241.563,126.837 239.314,126.196 237.783 C 124.604 233.977,123.382 231.800,121.354 229.151 C 120.407 227.915,118.557 224.675,117.242 221.951 C 115.928 219.228,114.097 216.100,113.175 215.000 C 111.632 213.160,110.263 210.613,108.018 205.400 C 107.545 204.300,106.195 202.140,105.019 200.600 C 103.843 199.060,101.877 195.668,100.650 193.062 C 99.424 190.457,97.540 187.127,96.464 185.662 C 94.318 182.741,93.496 181.296,91.422 176.800 C 90.661 175.150,89.256 172.763,88.301 171.495 C 86.709 169.383,85.674 167.502,82.598 161.135 C 81.997 159.889,80.778 157.999,79.891 156.935 C 79.004 155.871,77.161 152.654,75.796 149.786 C 74.431 146.918,72.497 143.568,71.498 142.342 C 70.499 141.115,68.695 138.062,67.489 135.556 C 66.283 133.050,64.463 129.830,63.443 128.400 C 62.424 126.970,60.770 124.090,59.769 122.000 C 57.120 116.467,56.845 115.989,55.135 113.917 C 54.280 112.881,52.398 109.592,50.953 106.608 C 49.508 103.623,47.532 100.207,46.562 99.017 C 45.592 97.826,43.979 95.085,42.978 92.926 C 39.956 86.407,39.529 85.632,37.998 83.883 C 37.188 82.957,35.940 80.940,35.226 79.400 C 32.636 73.815,31.067 70.958,29.406 68.800 C 24.383 62.276,25.515 58.540,32.800 57.591 C 34.010 57.434,114.423 57.281,211.496 57.252 L 387.992 57.200 390.527 58.215 " stroke="none" fill="#bceca6" fill-rule="evenodd"></path><path id="path3" d="M27.771 51.958 C 24.015 53.663,21.600 57.718,21.600 62.316 C 21.600 65.021,25.579 73.282,28.191 76.000 C 30.002 77.884,30.462 78.700,31.396 81.688 C 32.252 84.426,33.015 85.879,34.943 88.441 C 38.305 92.908,39.050 94.186,40.048 97.200 C 41.336 101.085,42.141 102.460,44.000 103.953 C 44.927 104.697,45.946 105.957,46.265 106.753 C 50.277 116.760,50.852 117.799,53.253 119.388 C 54.385 120.137,54.880 120.819,55.218 122.094 C 56.489 126.897,58.971 131.754,61.415 134.220 C 63.400 136.223,63.915 137.028,64.312 138.747 C 65.019 141.809,66.501 144.683,68.773 147.400 C 70.781 149.801,73.600 154.677,73.600 155.749 C 73.600 156.928,76.039 160.891,77.884 162.711 C 79.759 164.559,80.406 165.856,82.718 172.400 C 83.135 173.578,84.223 175.066,85.868 176.707 C 87.917 178.750,88.504 179.636,89.043 181.507 C 90.151 185.347,93.030 190.810,94.649 192.145 C 95.964 193.228,97.994 196.839,98.004 198.111 C 98.010 198.823,99.945 202.870,100.623 203.587 C 103.444 206.573,106.799 211.871,106.800 213.340 C 106.801 214.718,109.277 218.825,110.951 220.224 C 112.297 221.349,112.967 222.300,113.455 223.780 C 115.093 228.750,117.840 233.826,119.760 235.431 C 121.266 236.690,121.758 237.433,122.258 239.200 C 123.316 242.937,126.300 248.420,128.573 250.804 C 130.248 252.561,130.778 253.455,131.186 255.204 C 131.863 258.112,133.639 261.424,135.933 264.057 C 137.927 266.346,139.514 269.263,140.803 273.007 C 141.730 275.703,143.122 277.673,144.802 278.665 C 145.533 279.096,146.160 279.917,146.423 280.784 C 147.913 285.700,150.658 290.988,152.850 293.165 C 154.699 295.001,155.262 295.900,156.009 298.200 C 157.388 302.448,159.461 306.223,161.577 308.339 C 163.184 309.946,163.681 310.840,164.752 314.055 C 165.808 317.227,166.415 318.330,168.367 320.633 C 170.923 323.649,172.685 326.826,173.936 330.676 C 174.895 333.626,176.015 335.239,178.031 336.573 C 179.249 337.379,179.686 338.053,180.420 340.260 C 182.183 345.557,183.972 348.899,186.400 351.430 C 188.093 353.194,188.851 354.344,189.170 355.630 C 189.897 358.560,192.712 363.939,194.561 365.930 C 196.470 367.985,197.742 370.246,198.200 372.400 C 199.418 378.117,205.508 383.929,212.219 385.777 C 214.124 386.301,217.931 382.745,219.093 379.356 C 219.657 377.711,221.509 374.800,221.992 374.800 C 223.022 374.800,226.806 368.082,227.820 364.451 C 228.403 362.367,228.911 361.527,230.611 359.841 C 232.919 357.552,235.508 352.806,236.629 348.811 C 237.194 346.796,237.628 346.103,239.055 344.933 C 240.682 343.600,243.200 339.891,243.200 338.827 C 243.200 337.638,246.589 331.326,248.051 329.792 C 250.254 327.481,251.142 325.935,252.299 322.400 C 253.552 318.571,253.686 318.335,255.799 316.223 C 257.802 314.219,260.443 309.240,261.197 306.045 C 261.618 304.262,262.105 303.498,264.018 301.614 C 266.402 299.266,267.810 296.718,269.880 291.000 C 270.529 289.207,271.345 287.799,272.147 287.085 C 274.833 284.696,275.258 284.096,276.451 281.003 C 278.288 276.241,279.471 274.100,281.974 271.000 C 284.349 268.058,285.298 266.317,285.789 263.998 C 286.129 262.397,287.968 258.800,288.448 258.800 C 289.615 258.800,293.567 251.945,294.654 248.036 C 295.232 245.958,295.711 245.169,297.318 243.651 C 299.380 241.704,302.740 235.381,303.665 231.708 C 304.011 230.334,304.495 229.661,305.852 228.671 C 307.520 227.454,310.400 222.807,310.400 221.333 C 310.400 220.215,312.543 216.536,314.788 213.800 C 317.310 210.727,318.549 208.543,318.990 206.400 C 319.465 204.091,320.834 201.706,322.413 200.438 C 324.061 199.113,327.018 193.485,328.167 189.484 C 328.803 187.266,329.125 186.801,331.268 185.000 C 332.930 183.602,333.857 181.935,335.992 176.500 C 337.822 171.839,338.260 171.066,339.616 170.100 C 341.055 169.074,343.600 165.038,343.600 163.781 C 343.600 162.420,346.168 157.863,348.537 155.022 C 350.795 152.314,351.373 151.284,352.450 148.051 C 353.585 144.642,353.950 144.025,356.057 141.944 C 357.345 140.671,358.400 139.378,358.400 139.071 C 358.400 138.764,358.912 137.542,359.538 136.356 C 360.164 135.170,361.013 133.055,361.426 131.657 C 362.161 129.169,362.509 128.685,365.039 126.635 C 365.819 126.003,366.769 124.476,367.603 122.516 C 368.331 120.802,369.462 118.140,370.116 116.600 C 370.954 114.626,371.916 113.210,373.376 111.800 C 374.961 110.269,375.660 109.191,376.357 107.200 C 377.933 102.702,378.955 100.650,380.440 99.000 C 383.059 96.089,384.664 93.330,385.783 89.816 C 386.722 86.869,387.180 86.062,388.813 84.472 C 390.881 82.460,393.835 77.062,394.955 73.249 C 395.800 70.375,396.180 70.000,398.249 70.000 L 400.000 70.000 400.000 67.400 L 400.000 64.800 398.236 64.800 C 395.778 64.800,393.971 67.080,391.686 73.060 C 391.278 74.127,389.908 76.440,388.641 78.200 C 387.375 79.960,385.170 83.788,383.742 86.707 C 382.314 89.626,380.573 92.641,379.873 93.407 C 378.600 94.799,377.919 96.019,374.855 102.400 C 373.957 104.270,372.474 106.700,371.560 107.800 C 370.646 108.900,368.862 111.960,367.596 114.600 C 366.331 117.240,364.294 120.840,363.071 122.600 C 360.830 125.824,360.319 126.755,358.062 131.716 C 357.383 133.210,356.204 135.193,355.443 136.121 C 354.682 137.050,352.766 140.327,351.184 143.405 C 349.602 146.482,347.426 150.108,346.349 151.463 C 345.272 152.817,344.104 154.617,343.754 155.463 C 342.931 157.448,341.313 161.032,340.465 162.744 C 340.099 163.482,339.151 164.832,338.357 165.744 C 336.862 167.461,334.682 171.123,334.210 172.711 C 333.774 174.178,330.377 180.058,328.946 181.823 C 328.222 182.715,327.067 184.695,326.379 186.223 C 325.690 187.750,324.924 189.450,324.676 190.000 C 324.091 191.295,322.043 194.376,321.085 195.400 C 320.674 195.840,319.106 198.738,317.600 201.839 C 316.095 204.940,314.137 208.317,313.249 209.343 C 312.361 210.370,310.880 212.782,309.957 214.705 C 306.636 221.627,306.178 222.460,304.700 224.261 C 303.874 225.266,302.354 227.823,301.320 229.944 C 300.287 232.065,298.139 235.781,296.547 238.203 C 294.955 240.624,293.027 244.067,292.263 245.853 C 290.694 249.519,289.321 251.827,288.013 252.997 C 287.523 253.436,286.226 255.686,285.132 257.997 C 281.834 264.963,281.553 265.464,279.716 267.673 C 278.742 268.843,277.579 270.610,277.130 271.600 C 274.520 277.359,272.597 280.877,270.888 283.019 C 269.827 284.350,268.436 286.690,267.798 288.219 C 266.577 291.143,264.190 295.242,262.335 297.600 C 261.729 298.370,260.220 301.160,258.982 303.800 C 257.743 306.440,256.044 309.420,255.206 310.423 C 254.368 311.425,252.381 314.845,250.789 318.023 C 249.197 321.200,247.127 324.790,246.187 326.000 C 244.549 328.110,242.045 332.706,241.395 334.795 C 241.023 335.992,239.519 338.396,237.724 340.663 C 236.563 342.129,232.800 349.141,232.800 349.838 C 232.800 349.983,231.457 352.109,229.816 354.563 C 228.175 357.017,226.540 359.739,226.183 360.612 C 224.728 364.165,223.511 366.312,221.767 368.401 C 220.757 369.610,219.579 371.397,219.149 372.372 C 217.904 375.193,214.434 380.731,213.503 381.383 C 212.463 382.112,211.307 381.503,206.697 377.800 C 203.353 375.113,203.296 375.032,199.712 367.800 C 198.295 364.940,196.355 361.600,195.402 360.378 C 194.449 359.155,192.680 356.091,191.472 353.567 C 190.263 351.044,188.529 347.994,187.618 346.790 C 186.708 345.585,184.702 342.080,183.163 339.000 C 181.623 335.920,179.765 332.731,179.033 331.914 C 177.633 330.349,174.984 325.489,173.807 322.324 C 173.424 321.292,172.232 319.358,171.159 318.027 C 170.086 316.696,167.957 313.109,166.428 310.056 C 164.898 307.002,162.761 303.334,161.678 301.903 C 160.595 300.472,159.214 298.007,158.610 296.425 C 158.005 294.843,156.155 291.548,154.499 289.103 C 152.842 286.657,150.728 283.024,149.801 281.028 C 148.153 277.480,147.522 276.428,144.888 272.836 C 143.736 271.265,143.018 269.886,139.908 263.262 C 139.459 262.306,138.401 260.725,137.556 259.750 C 136.712 258.774,134.775 255.464,133.252 252.393 C 131.729 249.322,129.585 245.592,128.487 244.105 C 127.390 242.617,125.930 240.042,125.243 238.382 C 124.556 236.723,123.200 234.203,122.230 232.782 C 119.438 228.695,117.402 225.209,116.164 222.400 C 114.904 219.539,114.102 218.244,111.940 215.579 C 111.146 214.600,110.002 212.720,109.396 211.400 C 106.411 204.887,105.726 203.617,103.943 201.289 C 102.885 199.907,100.825 196.345,99.365 193.373 C 97.905 190.401,96.086 187.221,95.322 186.306 C 93.968 184.687,92.289 181.631,91.196 178.800 C 90.598 177.253,88.455 173.720,87.551 172.793 C 86.704 171.924,84.948 168.807,82.374 163.600 C 81.123 161.070,79.607 158.550,79.006 158.000 C 78.404 157.450,76.652 154.390,75.112 151.200 C 73.572 148.010,71.617 144.563,70.766 143.540 C 69.916 142.517,67.904 139.097,66.295 135.940 C 64.686 132.783,62.550 129.094,61.549 127.743 C 60.547 126.391,59.311 124.231,58.802 122.943 C 57.727 120.220,55.469 116.238,54.185 114.800 C 53.155 113.646,50.422 108.854,49.623 106.800 C 48.730 104.506,46.874 101.376,45.212 99.366 C 44.355 98.329,42.627 95.212,41.373 92.440 C 40.119 89.668,38.429 86.590,37.617 85.600 C 36.062 83.702,35.196 82.173,32.182 76.000 C 31.162 73.910,29.442 71.007,28.361 69.548 C 24.252 64.004,24.063 61.043,27.613 57.836 C 29.805 55.856,19.988 55.949,213.051 56.080 L 390.301 56.200 393.549 57.900 C 395.796 59.077,397.289 59.600,398.398 59.600 L 400.000 59.600 400.000 56.057 L 400.000 52.514 396.900 52.250 C 395.195 52.105,392.810 51.823,391.600 51.622 C 386.651 50.804,29.587 51.133,27.771 51.958 " stroke="none" fill="#cef1bd" fill-rule="evenodd"></path><path id="path4" d="M32.800 57.591 C 29.622 58.005,28.989 58.279,27.630 59.826 C 25.400 62.367,25.727 64.022,29.406 68.800 C 31.067 70.958,32.636 73.815,35.226 79.400 C 35.940 80.940,37.188 82.957,37.998 83.883 C 39.529 85.632,39.956 86.407,42.978 92.926 C 43.979 95.085,45.592 97.826,46.562 99.017 C 47.532 100.207,49.508 103.623,50.953 106.608 C 52.398 109.592,54.280 112.881,55.135 113.917 C 56.845 115.989,57.120 116.467,59.769 122.000 C 60.770 124.090,62.424 126.970,63.443 128.400 C 64.463 129.830,66.283 133.050,67.489 135.556 C 68.695 138.062,70.499 141.115,71.498 142.342 C 72.497 143.568,74.431 146.918,75.796 149.786 C 77.161 152.654,79.004 155.871,79.891 156.935 C 80.778 157.999,81.997 159.889,82.598 161.135 C 85.674 167.502,86.709 169.383,88.301 171.495 C 89.256 172.763,90.661 175.150,91.422 176.800 C 93.496 181.296,94.318 182.741,96.464 185.662 C 97.540 187.127,99.424 190.457,100.650 193.062 C 101.877 195.668,103.843 199.060,105.019 200.600 C 106.195 202.140,107.545 204.300,108.018 205.400 C 110.263 210.613,111.632 213.160,113.175 215.000 C 114.097 216.100,115.928 219.228,117.242 221.951 C 118.557 224.675,120.407 227.915,121.354 229.151 C 123.382 231.800,124.604 233.977,126.196 237.783 C 126.837 239.314,128.173 241.563,129.165 242.781 C 130.157 244.000,132.264 247.615,133.846 250.814 C 135.428 254.014,137.380 257.419,138.184 258.381 C 138.988 259.343,140.814 262.521,142.242 265.442 C 143.671 268.364,145.631 271.774,146.598 273.020 C 147.566 274.266,149.437 277.471,150.755 280.143 C 152.073 282.814,154.018 286.180,155.076 287.621 C 156.134 289.063,157.297 290.863,157.660 291.621 C 158.023 292.380,159.050 294.530,159.943 296.400 C 160.836 298.270,162.124 300.430,162.805 301.200 C 163.486 301.970,165.354 305.221,166.955 308.424 C 168.557 311.627,170.766 315.407,171.864 316.824 C 172.962 318.241,174.103 320.030,174.399 320.800 C 175.497 323.656,178.131 328.650,179.356 330.200 C 181.044 332.336,182.490 334.651,183.351 336.600 C 184.964 340.247,186.598 343.150,188.443 345.648 C 189.519 347.105,191.146 349.985,192.060 352.048 C 193.952 356.319,194.403 357.096,196.444 359.600 C 197.938 361.432,199.348 363.994,201.610 368.989 C 203.273 372.663,204.071 373.728,206.539 375.572 C 207.672 376.419,209.037 377.537,209.572 378.056 C 210.669 379.122,212.462 380.393,212.873 380.397 C 213.202 380.401,216.630 374.744,218.326 371.400 C 218.996 370.080,220.277 368.125,221.173 367.055 C 222.069 365.986,223.357 363.916,224.036 362.455 C 226.771 356.572,227.247 355.698,229.101 353.165 C 230.162 351.716,232.163 348.240,233.548 345.441 C 234.934 342.641,236.563 339.777,237.169 339.076 C 238.445 337.599,240.976 333.347,241.408 331.954 C 241.953 330.197,243.682 327.015,244.971 325.400 C 246.709 323.220,247.532 321.806,250.392 316.086 C 251.744 313.383,253.345 310.593,253.950 309.886 C 255.678 307.867,256.565 306.401,257.752 303.600 C 259.292 299.965,260.339 298.055,261.806 296.200 C 263.152 294.498,266.000 289.887,266.000 289.410 C 266.000 288.635,269.449 282.423,270.568 281.183 C 271.827 279.789,275.224 273.555,275.790 271.600 C 276.153 270.349,277.763 267.872,279.516 265.868 C 280.253 265.025,281.182 263.585,281.580 262.668 C 283.829 257.488,286.203 253.040,287.729 251.148 C 289.687 248.720,291.200 246.219,291.200 245.410 C 291.200 244.554,293.812 239.850,296.276 236.269 C 297.514 234.471,299.234 231.477,300.099 229.615 C 300.964 227.754,302.466 225.186,303.437 223.910 C 305.062 221.772,305.875 220.302,309.619 212.721 C 310.347 211.248,311.556 209.358,312.306 208.521 C 313.057 207.684,314.923 204.436,316.454 201.302 C 317.984 198.168,320.183 194.346,321.339 192.810 C 322.495 191.273,324.061 188.534,324.820 186.723 C 325.579 184.912,327.173 182.074,328.362 180.415 C 330.200 177.851,334.400 170.212,334.400 169.433 C 334.400 168.976,336.533 165.821,337.802 164.400 C 338.489 163.630,340.185 160.543,341.570 157.541 C 342.955 154.538,344.585 151.538,345.191 150.875 C 346.708 149.213,347.770 147.426,350.447 142.034 C 351.711 139.485,353.498 136.410,354.417 135.201 C 356.096 132.992,358.036 129.464,358.597 127.600 C 358.893 126.614,362.129 121.458,363.043 120.515 C 363.302 120.248,364.822 117.411,366.422 114.210 C 368.022 111.010,369.900 107.718,370.597 106.896 C 371.965 105.280,372.979 103.479,375.811 97.634 C 376.815 95.563,378.342 93.025,379.205 91.994 C 380.068 90.964,381.767 88.068,382.982 85.560 C 385.569 80.217,386.399 78.794,388.258 76.513 C 389.014 75.585,390.081 73.785,390.629 72.513 C 392.608 67.920,394.137 65.124,395.315 63.947 L 396.515 62.747 394.789 60.989 C 393.684 59.863,392.151 58.865,390.527 58.215 L 387.992 57.200 211.496 57.252 C 114.423 57.281,34.010 57.434,32.800 57.591 M388.774 60.787 C 391.494 62.174,391.722 62.592,390.775 64.449 C 390.326 65.329,389.594 67.231,389.147 68.676 C 388.479 70.841,387.926 71.712,386.007 73.625 C 384.446 75.181,383.407 76.650,382.859 78.074 C 380.364 84.555,379.493 86.236,377.571 88.268 C 375.738 90.206,373.613 93.871,373.604 95.111 C 373.597 95.991,371.186 100.450,370.234 101.346 C 368.355 103.112,365.934 107.255,364.672 110.865 C 363.552 114.067,363.055 114.914,361.183 116.800 C 359.076 118.924,355.200 126.557,355.200 128.584 C 355.200 128.939,354.162 130.258,352.893 131.515 C 350.929 133.460,350.296 134.484,348.639 138.400 C 345.686 145.376,345.704 145.344,343.823 146.916 C 342.393 148.111,341.829 149.007,340.817 151.694 C 338.829 156.967,338.368 157.892,336.925 159.491 C 333.778 162.979,331.865 166.481,330.795 170.713 C 330.482 171.952,329.803 172.948,328.339 174.313 C 326.177 176.330,323.542 181.077,322.178 185.414 C 321.621 187.185,320.986 188.166,319.491 189.566 C 317.619 191.319,316.263 193.404,315.575 195.589 C 314.376 199.391,312.592 202.774,310.822 204.600 C 309.067 206.410,306.800 210.335,306.800 211.563 C 306.800 212.598,304.747 216.275,303.318 217.800 C 300.409 220.905,298.877 223.612,297.772 227.600 C 297.156 229.823,296.697 230.556,294.612 232.650 C 292.349 234.924,288.372 242.857,288.395 245.050 C 288.398 245.297,287.238 246.673,285.818 248.107 C 284.399 249.541,283.113 251.228,282.961 251.857 C 282.809 252.486,282.368 253.720,281.982 254.600 C 281.595 255.480,280.841 257.191,280.306 258.402 C 279.772 259.613,278.745 261.233,278.024 262.002 C 275.615 264.574,274.453 266.435,273.578 269.128 C 272.517 272.392,271.252 274.630,269.612 276.147 C 268.930 276.778,268.083 277.858,267.729 278.547 C 267.376 279.236,266.787 280.185,266.421 280.655 C 266.055 281.125,265.333 282.835,264.817 284.455 C 264.301 286.075,263.718 287.850,263.521 288.400 C 263.324 288.950,262.331 290.029,261.316 290.797 C 260.130 291.694,259.192 292.839,258.694 293.997 C 258.267 294.989,257.422 296.880,256.815 298.200 C 256.209 299.520,255.482 301.320,255.201 302.200 C 254.883 303.194,253.838 304.639,252.444 306.012 C 251.121 307.317,249.977 308.876,249.657 309.812 C 247.928 314.867,244.521 320.729,242.339 322.400 C 241.897 322.739,240.099 327.035,239.805 328.456 C 239.472 330.065,238.230 332.047,236.247 334.134 C 234.440 336.036,231.830 340.700,231.198 343.157 C 230.359 346.415,229.948 347.146,228.099 348.661 C 226.216 350.205,224.353 353.662,221.838 360.282 C 221.144 362.112,220.471 363.251,219.997 363.401 C 218.799 363.781,216.954 366.155,216.222 368.258 C 215.310 370.881,213.084 375.199,212.645 375.199 C 212.166 375.200,207.361 371.233,205.533 369.329 C 204.538 368.292,203.599 366.578,202.615 364.000 C 200.580 358.672,200.045 357.732,197.977 355.855 C 196.974 354.945,195.866 353.480,195.516 352.600 C 191.937 343.626,190.992 341.842,189.139 340.558 C 187.284 339.272,186.943 338.716,186.154 335.689 C 185.359 332.637,182.978 328.323,180.839 326.062 C 179.209 324.338,177.213 320.852,177.204 319.711 C 177.194 318.485,175.129 314.765,173.145 312.400 C 170.800 309.604,169.956 308.056,167.952 302.872 C 166.891 300.130,166.300 299.213,164.596 297.672 C 163.074 296.295,162.358 295.272,161.886 293.800 C 160.341 288.982,157.705 284.163,155.696 282.480 C 154.029 281.084,153.642 280.478,153.048 278.323 C 152.050 274.709,149.791 270.403,147.731 268.192 C 145.880 266.204,144.461 263.727,143.610 261.000 C 142.868 258.620,141.263 255.994,139.493 254.262 C 138.629 253.416,137.479 251.706,136.940 250.462 C 136.400 249.218,135.718 247.660,135.424 247.000 C 135.130 246.340,134.583 244.940,134.207 243.889 C 133.766 242.651,132.766 241.231,131.370 239.857 C 129.726 238.238,128.971 237.081,128.184 234.968 C 127.145 232.180,126.068 229.687,124.878 227.314 C 124.523 226.607,123.560 225.527,122.738 224.914 C 121.146 223.728,119.407 220.707,118.989 218.400 C 118.650 216.526,115.899 211.987,113.516 209.368 C 112.346 208.082,110.400 204.394,110.400 203.460 C 110.399 202.164,107.851 197.859,106.063 196.132 C 104.962 195.070,103.932 193.660,103.773 193.000 C 103.106 190.225,99.862 183.561,98.612 182.400 C 95.666 179.662,95.256 179.116,94.997 177.583 C 94.515 174.729,91.088 168.411,88.684 165.944 C 86.953 164.168,86.396 163.274,86.066 161.744 C 85.320 158.278,82.615 153.521,80.185 151.400 C 79.362 150.681,77.745 147.464,76.582 144.229 C 75.663 141.676,75.026 140.643,73.307 138.925 C 71.884 137.501,70.829 135.959,70.140 134.295 C 66.698 125.983,66.599 125.799,64.486 123.730 C 62.813 122.091,62.178 121.088,61.438 118.912 C 59.818 114.148,57.956 110.756,55.772 108.590 C 54.007 106.839,53.548 106.047,52.631 103.169 C 52.040 101.316,51.206 99.312,50.778 98.716 C 50.350 98.120,50.000 97.485,50.000 97.305 C 50.000 97.125,49.685 96.674,49.300 96.303 C 46.534 93.636,44.490 90.151,43.191 85.887 C 42.463 83.501,40.936 81.071,39.615 80.200 C 38.575 79.514,36.400 75.887,36.400 74.837 C 36.400 74.420,34.676 70.426,33.479 68.070 C 32.996 67.119,31.745 65.611,30.700 64.721 C 27.957 62.384,28.362 61.916,34.218 60.661 C 39.216 59.590,386.670 59.713,388.774 60.787 " stroke="none" fill="#b4ec9c" fill-rule="evenodd"></path></g></svg>